# xmcd
#
# Track frame offsets:
#	150
#	24902
#	49654
#	74706
#
# Disc length: 1329 seconds
#
# Revision: 1
# Processed by: cddbd v1.5.1PL0 Copyright (c) Steve Scherf et al.
# Submitted via: CDex 1.50Beta5
#
DISCID=30052f04
DTITLE=中島美嘉 - FIND THE WAY
DYEAR=1900
DGENRE=Pop
TTITLE0=FIND THE WAY
TTITLE1=FIND THE WAY(Instrumental)
TTITLE2=接吻(at-tica remix)
TTITLE3=FIND THE WAY(jamaals manatee mix by the orb)
EXTD=
EXTT0=
EXTT1=
EXTT2=
EXTT3=
PLAYORDER=
